<svg width="28" height="28" viewBox="0 0 28 28" fill="none" xmlns="http://www.w3.org/2000/svg">
<rect x="0.4" y="0.4" width="27.2" height="27.2" rx="1.6" fill="#171923" stroke="#FF2D20" stroke-width="0.8"/>
<path fill-rule="evenodd" clip-rule="evenodd" d="M22.9904 9.07207C22.9967 9.09607 22.9999 9.12081 23 9.14567V13.0093C23 13.0589 22.9873 13.1076 22.9631 13.1505C22.9389 13.1934 22.9042 13.229 22.8624 13.2537L19.7095 15.1207V18.8213C19.7095 18.9221 19.6575 19.015 19.5725 19.0657L12.9912 22.9625C12.9761 22.9713 12.9597 22.9769 12.9432 22.9829C12.9371 22.985 12.9313 22.9889 12.9248 22.9907C12.8788 23.0031 12.8304 23.0031 12.7844 22.9907C12.7769 22.9885 12.77 22.9843 12.7628 22.9815C12.7478 22.9759 12.732 22.9709 12.7176 22.9625L6.13763 19.0657C6.09583 19.041 6.0611 19.0054 6.03694 18.9625C6.01277 18.9196 6.00003 18.8709 6 18.8213V7.23039C6 7.20504 6.00342 7.18039 6.00959 7.15644C6.01164 7.14834 6.01643 7.14095 6.01917 7.13285C6.02431 7.11806 6.0291 7.10292 6.03663 7.08919C6.04177 7.08003 6.0493 7.07264 6.05546 7.06418C6.06334 7.05292 6.07053 7.0413 6.07977 7.03144C6.08765 7.02334 6.09792 7.01735 6.10682 7.01031C6.11675 7.00186 6.12565 6.9927 6.13695 6.98601L9.42746 5.03763C9.46912 5.01298 9.51634 5 9.56441 5C9.61247 5 9.65969 5.01298 9.70135 5.03763L12.9915 6.98601H12.9922C13.0032 6.99305 13.0124 7.00186 13.0223 7.00995C13.0312 7.017 13.0412 7.02334 13.049 7.03108C13.0586 7.0413 13.0655 7.05292 13.0737 7.06418C13.0795 7.07264 13.0874 7.08003 13.0922 7.08919C13.1001 7.10327 13.1045 7.11806 13.11 7.13285C13.1127 7.14095 13.1175 7.14834 13.1196 7.1568C13.1259 7.18079 13.1291 7.20554 13.1292 7.23039V14.47L15.8708 12.8463V9.14532C15.8708 9.12067 15.8743 9.09566 15.8804 9.07207C15.8828 9.06362 15.8873 9.05623 15.89 9.04813C15.8955 9.03334 15.9003 9.01819 15.9078 9.00446C15.913 8.99531 15.9205 8.98791 15.9263 8.97946C15.9345 8.96819 15.9414 8.95657 15.951 8.94671C15.9588 8.93861 15.9688 8.93262 15.9777 8.92558C15.9879 8.91713 15.9968 8.90798 16.0078 8.90128L19.2986 6.95291C19.3403 6.92822 19.3875 6.91522 19.4356 6.91522C19.4837 6.91522 19.5309 6.92822 19.5725 6.95291L22.8627 8.90128C22.8743 8.90833 22.8833 8.91713 22.8935 8.92523C22.9021 8.93227 22.912 8.93861 22.9199 8.94636C22.9295 8.95657 22.9363 8.96819 22.9445 8.97946C22.9507 8.98791 22.9582 8.99531 22.963 9.00446C22.9709 9.01819 22.9753 9.03334 22.9808 9.04813C22.9839 9.05623 22.9884 9.06362 22.9904 9.07207ZM22.4515 12.8463V9.63338L21.3001 10.3151L19.7095 11.2571V14.47L22.4519 12.8463H22.4515ZM19.1614 18.6583V15.4433L17.5967 16.3624L13.1288 18.9851V22.2304L19.1614 18.6583ZM6.54848 7.7181V18.6583L12.5803 22.23V18.9854L9.42917 17.1512L9.42814 17.1505L9.42677 17.1497C9.41616 17.1434 9.40726 17.1343 9.39733 17.1265C9.38877 17.1195 9.37884 17.1138 9.37131 17.1061L9.37062 17.105C9.36172 17.0962 9.35556 17.0853 9.34803 17.0754C9.34118 17.0659 9.33296 17.0578 9.32749 17.048L9.32714 17.0469C9.32098 17.0364 9.31721 17.0237 9.31276 17.0117C9.30831 17.0011 9.30249 16.9913 9.29975 16.98C9.29633 16.9666 9.29565 16.9522 9.29428 16.9385C9.29291 16.9279 9.29017 16.9173 9.29017 16.9068V16.9061V9.34181L7.69986 8.39949L6.54848 7.7181ZM9.56475 5.60739L6.8234 7.23039L9.56406 8.85339L12.3051 7.23004L9.56406 5.60739H9.56475ZM10.9904 15.7363L12.5807 14.7947V7.7181L11.4293 8.39984L9.83864 9.34181V16.4184L10.9904 15.7363ZM19.4356 7.52267L16.6946 9.14567L19.4356 10.7687L22.1763 9.14532L19.4356 7.52267ZM19.1614 11.2571L17.5707 10.3151L16.4193 9.63338V12.8463L18.0096 13.7879L19.1614 14.47V11.2571ZM12.8542 18.4974L16.8747 16.1367L18.8844 14.957L16.1454 13.335L12.9919 15.2024L10.1177 16.9043L12.8542 18.4974Z" fill="#FF2D20"/>
<rect width="28" height="28" rx="2" fill="#171923"/>
<path fill-rule="evenodd" clip-rule="evenodd" d="M22.9904 9.07207C22.9967 9.09607 22.9999 9.12081 23 9.14567V13.0093C23 13.0589 22.9873 13.1076 22.9631 13.1505C22.9389 13.1934 22.9042 13.229 22.8624 13.2537L19.7095 15.1207V18.8213C19.7095 18.9221 19.6575 19.015 19.5725 19.0657L12.9912 22.9625C12.9761 22.9713 12.9597 22.9769 12.9432 22.9829C12.9371 22.985 12.9313 22.9889 12.9248 22.9907C12.8788 23.0031 12.8304 23.0031 12.7844 22.9907C12.7769 22.9885 12.77 22.9843 12.7628 22.9815C12.7478 22.9759 12.732 22.9709 12.7176 22.9625L6.13763 19.0657C6.09583 19.041 6.0611 19.0054 6.03694 18.9625C6.01277 18.9196 6.00003 18.8709 6 18.8213V7.23039C6 7.20504 6.00342 7.18039 6.00959 7.15644C6.01164 7.14834 6.01643 7.14095 6.01917 7.13285C6.02431 7.11806 6.0291 7.10292 6.03663 7.08919C6.04177 7.08003 6.0493 7.07264 6.05546 7.06418C6.06334 7.05292 6.07053 7.0413 6.07977 7.03144C6.08765 7.02334 6.09792 7.01735 6.10682 7.01031C6.11675 7.00186 6.12565 6.9927 6.13695 6.98601L9.42746 5.03763C9.46912 5.01298 9.51634 5 9.56441 5C9.61247 5 9.65969 5.01298 9.70135 5.03763L12.9915 6.98601H12.9922C13.0032 6.99305 13.0124 7.00186 13.0223 7.00995C13.0312 7.017 13.0412 7.02334 13.049 7.03108C13.0586 7.0413 13.0655 7.05292 13.0737 7.06418C13.0795 7.07264 13.0874 7.08003 13.0922 7.08919C13.1001 7.10327 13.1045 7.11806 13.11 7.13285C13.1127 7.14095 13.1175 7.14834 13.1196 7.1568C13.1259 7.18079 13.1291 7.20554 13.1292 7.23039V14.47L15.8708 12.8463V9.14532C15.8708 9.12067 15.8743 9.09566 15.8804 9.07207C15.8828 9.06362 15.8873 9.05623 15.89 9.04813C15.8955 9.03334 15.9003 9.01819 15.9078 9.00446C15.913 8.99531 15.9205 8.98791 15.9263 8.97946C15.9345 8.96819 15.9414 8.95657 15.951 8.94671C15.9588 8.93861 15.9688 8.93262 15.9777 8.92558C15.9879 8.91713 15.9968 8.90798 16.0078 8.90128L19.2986 6.95291C19.3403 6.92822 19.3875 6.91522 19.4356 6.91522C19.4837 6.91522 19.5309 6.92822 19.5725 6.95291L22.8627 8.90128C22.8743 8.90833 22.8833 8.91713 22.8935 8.92523C22.9021 8.93227 22.912 8.93861 22.9199 8.94636C22.9295 8.95657 22.9363 8.96819 22.9445 8.97946C22.9507 8.98791 22.9582 8.99531 22.963 9.00446C22.9709 9.01819 22.9753 9.03334 22.9808 9.04813C22.9839 9.05623 22.9884 9.06362 22.9904 9.07207ZM22.4515 12.8463V9.63338L21.3001 10.3151L19.7095 11.2571V14.47L22.4519 12.8463H22.4515ZM19.1614 18.6583V15.4433L17.5967 16.3624L13.1288 18.9851V22.2304L19.1614 18.6583ZM6.54848 7.7181V18.6583L12.5803 22.23V18.9854L9.42917 17.1512L9.42814 17.1505L9.42677 17.1497C9.41616 17.1434 9.40726 17.1343 9.39733 17.1265C9.38877 17.1195 9.37884 17.1138 9.37131 17.1061L9.37062 17.105C9.36172 17.0962 9.35556 17.0853 9.34803 17.0754C9.34118 17.0659 9.33296 17.0578 9.32749 17.048L9.32714 17.0469C9.32098 17.0364 9.31721 17.0237 9.31276 17.0117C9.30831 17.0011 9.30249 16.9913 9.29975 16.98C9.29633 16.9666 9.29565 16.9522 9.29428 16.9385C9.29291 16.9279 9.29017 16.9173 9.29017 16.9068V16.9061V9.34181L7.69986 8.39949L6.54848 7.7181ZM9.56475 5.60739L6.8234 7.23039L9.56406 8.85339L12.3051 7.23004L9.56406 5.60739H9.56475ZM10.9904 15.7363L12.5807 14.7947V7.7181L11.4293 8.39984L9.83864 9.34181V16.4184L10.9904 15.7363ZM19.4356 7.52267L16.6946 9.14567L19.4356 10.7687L22.1763 9.14532L19.4356 7.52267ZM19.1614 11.2571L17.5707 10.3151L16.4193 9.63338V12.8463L18.0096 13.7879L19.1614 14.47V11.2571ZM12.8542 18.4974L16.8747 16.1367L18.8844 14.957L16.1454 13.335L12.9919 15.2024L10.1177 16.9043L12.8542 18.4974Z" fill="#FF2D20"/>
<rect x="0.4" y="0.4" width="27.2" height="27.2" rx="1.6" fill="#171923" stroke="#FF2D20" stroke-width="0.8"/>
<path fill-rule="evenodd" clip-rule="evenodd" d="M22.9904 9.07207C22.9967 9.09607 22.9999 9.12081 23 9.14567V13.0093C23 13.0589 22.9873 13.1076 22.9631 13.1505C22.9389 13.1934 22.9042 13.229 22.8624 13.2537L19.7095 15.1207V18.8213C19.7095 18.9221 19.6575 19.015 19.5725 19.0657L12.9912 22.9625C12.9761 22.9713 12.9597 22.9769 12.9432 22.9829C12.9371 22.985 12.9313 22.9889 12.9248 22.9907C12.8788 23.0031 12.8304 23.0031 12.7844 22.9907C12.7769 22.9885 12.77 22.9843 12.7628 22.9815C12.7478 22.9759 12.732 22.9709 12.7176 22.9625L6.13763 19.0657C6.09583 19.041 6.0611 19.0054 6.03694 18.9625C6.01277 18.9196 6.00003 18.8709 6 18.8213V7.23039C6 7.20504 6.00342 7.18039 6.00959 7.15644C6.01164 7.14834 6.01643 7.14095 6.01917 7.13285C6.02431 7.11806 6.0291 7.10292 6.03663 7.08919C6.04177 7.08003 6.0493 7.07264 6.05546 7.06418C6.06334 7.05292 6.07053 7.0413 6.07977 7.03144C6.08765 7.02334 6.09792 7.01735 6.10682 7.01031C6.11675 7.00186 6.12565 6.9927 6.13695 6.98601L9.42746 5.03763C9.46912 5.01298 9.51634 5 9.56441 5C9.61247 5 9.65969 5.01298 9.70135 5.03763L12.9915 6.98601H12.9922C13.0032 6.99305 13.0124 7.00186 13.0223 7.00995C13.0312 7.017 13.0412 7.02334 13.049 7.03108C13.0586 7.0413 13.0655 7.05292 13.0737 7.06418C13.0795 7.07264 13.0874 7.08003 13.0922 7.08919C13.1001 7.10327 13.1045 7.11806 13.11 7.13285C13.1127 7.14095 13.1175 7.14834 13.1196 7.1568C13.1259 7.18079 13.1291 7.20554 13.1292 7.23039V14.47L15.8708 12.8463V9.14532C15.8708 9.12067 15.8743 9.09566 15.8804 9.07207C15.8828 9.06362 15.8873 9.05623 15.89 9.04813C15.8955 9.03334 15.9003 9.01819 15.9078 9.00446C15.913 8.99531 15.9205 8.98791 15.9263 8.97946C15.9345 8.96819 15.9414 8.95657 15.951 8.94671C15.9588 8.93861 15.9688 8.93262 15.9777 8.92558C15.9879 8.91713 15.9968 8.90798 16.0078 8.90128L19.2986 6.95291C19.3403 6.92822 19.3875 6.91522 19.4356 6.91522C19.4837 6.91522 19.5309 6.92822 19.5725 6.95291L22.8627 8.90128C22.8743 8.90833 22.8833 8.91713 22.8935 8.92523C22.9021 8.93227 22.912 8.93861 22.9199 8.94636C22.9295 8.95657 22.9363 8.96819 22.9445 8.97946C22.9507 8.98791 22.9582 8.99531 22.963 9.00446C22.9709 9.01819 22.9753 9.03334 22.9808 9.04813C22.9839 9.05623 22.9884 9.06362 22.9904 9.07207ZM22.4515 12.8463V9.63338L21.3001 10.3151L19.7095 11.2571V14.47L22.4519 12.8463H22.4515ZM19.1614 18.6583V15.4433L17.5967 16.3624L13.1288 18.9851V22.2304L19.1614 18.6583ZM6.54848 7.7181V18.6583L12.5803 22.23V18.9854L9.42917 17.1512L9.42814 17.1505L9.42677 17.1497C9.41616 17.1434 9.40726 17.1343 9.39733 17.1265C9.38877 17.1195 9.37884 17.1138 9.37131 17.1061L9.37062 17.105C9.36172 17.0962 9.35556 17.0853 9.34803 17.0754C9.34118 17.0659 9.33296 17.0578 9.32749 17.048L9.32714 17.0469C9.32098 17.0364 9.31721 17.0237 9.31276 17.0117C9.30831 17.0011 9.30249 16.9913 9.29975 16.98C9.29633 16.9666 9.29565 16.9522 9.29428 16.9385C9.29291 16.9279 9.29017 16.9173 9.29017 16.9068V16.9061V9.34181L7.69986 8.39949L6.54848 7.7181ZM9.56475 5.60739L6.8234 7.23039L9.56406 8.85339L12.3051 7.23004L9.56406 5.60739H9.56475ZM10.9904 15.7363L12.5807 14.7947V7.7181L11.4293 8.39984L9.83864 9.34181V16.4184L10.9904 15.7363ZM19.4356 7.52267L16.6946 9.14567L19.4356 10.7687L22.1763 9.14532L19.4356 7.52267ZM19.1614 11.2571L17.5707 10.3151L16.4193 9.63338V12.8463L18.0096 13.7879L19.1614 14.47V11.2571ZM12.8542 18.4974L16.8747 16.1367L18.8844 14.957L16.1454 13.335L12.9919 15.2024L10.1177 16.9043L12.8542 18.4974Z" fill="#FF2D20"/>
<rect width="28" height="28" rx="2" fill="#171923"/>
<path fill-rule="evenodd" clip-rule="evenodd" d="M22.9904 9.07207C22.9967 9.09607 22.9999 9.12081 23 9.14567V13.0093C23 13.0589 22.9873 13.1076 22.9631 13.1505C22.9389 13.1934 22.9042 13.229 22.8624 13.2537L19.7095 15.1207V18.8213C19.7095 18.9221 19.6575 19.015 19.5725 19.0657L12.9912 22.9625C12.9761 22.9713 12.9597 22.9769 12.9432 22.9829C12.9371 22.985 12.9313 22.9889 12.9248 22.9907C12.8788 23.0031 12.8304 23.0031 12.7844 22.9907C12.7769 22.9885 12.77 22.9843 12.7628 22.9815C12.7478 22.9759 12.732 22.9709 12.7176 22.9625L6.13763 19.0657C6.09583 19.041 6.0611 19.0054 6.03694 18.9625C6.01277 18.9196 6.00003 18.8709 6 18.8213V7.23039C6 7.20504 6.00342 7.18039 6.00959 7.15644C6.01164 7.14834 6.01643 7.14095 6.01917 7.13285C6.02431 7.11806 6.0291 7.10292 6.03663 7.08919C6.04177 7.08003 6.0493 7.07264 6.05546 7.06418C6.06334 7.05292 6.07053 7.0413 6.07977 7.03144C6.08765 7.02334 6.09792 7.01735 6.10682 7.01031C6.11675 7.00186 6.12565 6.9927 6.13695 6.98601L9.42746 5.03763C9.46912 5.01298 9.51634 5 9.56441 5C9.61247 5 9.65969 5.01298 9.70135 5.03763L12.9915 6.98601H12.9922C13.0032 6.99305 13.0124 7.00186 13.0223 7.00995C13.0312 7.017 13.0412 7.02334 13.049 7.03108C13.0586 7.0413 13.0655 7.05292 13.0737 7.06418C13.0795 7.07264 13.0874 7.08003 13.0922 7.08919C13.1001 7.10327 13.1045 7.11806 13.11 7.13285C13.1127 7.14095 13.1175 7.14834 13.1196 7.1568C13.1259 7.18079 13.1291 7.20554 13.1292 7.23039V14.47L15.8708 12.8463V9.14532C15.8708 9.12067 15.8743 9.09566 15.8804 9.07207C15.8828 9.06362 15.8873 9.05623 15.89 9.04813C15.8955 9.03334 15.9003 9.01819 15.9078 9.00446C15.913 8.99531 15.9205 8.98791 15.9263 8.97946C15.9345 8.96819 15.9414 8.95657 15.951 8.94671C15.9588 8.93861 15.9688 8.93262 15.9777 8.92558C15.9879 8.91713 15.9968 8.90798 16.0078 8.90128L19.2986 6.95291C19.3403 6.92822 19.3875 6.91522 19.4356 6.91522C19.4837 6.91522 19.5309 6.92822 19.5725 6.95291L22.8627 8.90128C22.8743 8.90833 22.8833 8.91713 22.8935 8.92523C22.9021 8.93227 22.912 8.93861 22.9199 8.94636C22.9295 8.95657 22.9363 8.96819 22.9445 8.97946C22.9507 8.98791 22.9582 8.99531 22.963 9.00446C22.9709 9.01819 22.9753 9.03334 22.9808 9.04813C22.9839 9.05623 22.9884 9.06362 22.9904 9.07207ZM22.4515 12.8463V9.63338L21.3001 10.3151L19.7095 11.2571V14.47L22.4519 12.8463H22.4515ZM19.1614 18.6583V15.4433L17.5967 16.3624L13.1288 18.9851V22.2304L19.1614 18.6583ZM6.54848 7.7181V18.6583L12.5803 22.23V18.9854L9.42917 17.1512L9.42814 17.1505L9.42677 17.1497C9.41616 17.1434 9.40726 17.1343 9.39733 17.1265C9.38877 17.1195 9.37884 17.1138 9.37131 17.1061L9.37062 17.105C9.36172 17.0962 9.35556 17.0853 9.34803 17.0754C9.34118 17.0659 9.33296 17.0578 9.32749 17.048L9.32714 17.0469C9.32098 17.0364 9.31721 17.0237 9.31276 17.0117C9.30831 17.0011 9.30249 16.9913 9.29975 16.98C9.29633 16.9666 9.29565 16.9522 9.29428 16.9385C9.29291 16.9279 9.29017 16.9173 9.29017 16.9068V16.9061V9.34181L7.69986 8.39949L6.54848 7.7181ZM9.56475 5.60739L6.8234 7.23039L9.56406 8.85339L12.3051 7.23004L9.56406 5.60739H9.56475ZM10.9904 15.7363L12.5807 14.7947V7.7181L11.4293 8.39984L9.83864 9.34181V16.4184L10.9904 15.7363ZM19.4356 7.52267L16.6946 9.14567L19.4356 10.7687L22.1763 9.14532L19.4356 7.52267ZM19.1614 11.2571L17.5707 10.3151L16.4193 9.63338V12.8463L18.0096 13.7879L19.1614 14.47V11.2571ZM12.8542 18.4974L16.8747 16.1367L18.8844 14.957L16.1454 13.335L12.9919 15.2024L10.1177 16.9043L12.8542 18.4974Z" fill="#FF2D20"/>
</svg>
