<svg width="28" height="28" viewBox="0 0 28 28" fill="none" xmlns="http://www.w3.org/2000/svg">
<rect width="28" height="28" rx="2" fill="#0F172A"/>
<path fill-rule="evenodd" clip-rule="evenodd" d="M22.0836 19.6007C21.7498 20.1053 21.4963 20.727 20.8178 20.727C19.6758 20.727 19.6141 18.9661 18.4715 18.9661C17.329 18.9661 17.3907 20.727 16.2488 20.727C15.1069 20.727 15.0451 18.9661 13.9026 18.9661C12.76 18.9661 12.8218 20.727 11.6798 20.727C10.5379 20.727 10.4762 18.9661 9.33362 18.9661C8.19108 18.9661 8.25282 20.727 7.11089 20.727C6.752 20.727 6.4998 20.5531 6.28722 20.3145C5.4701 18.8925 5 17.2261 5 15.4445C5 10.2284 9.02936 6 13.9998 6C18.9703 6 22.9996 10.2284 22.9996 15.4445C22.9996 16.9359 22.6702 18.3466 22.0836 19.6007Z" fill="#FB70A9"/>
<path d="M10.4059 19.8674C10.1805 19.5913 9.91356 19.3864 9.52754 19.3864C8.61094 19.3864 8.44269 20.5416 7.86377 21.0624L7.86377 16.0797C7.86377 15.3777 8.43285 14.8086 9.13485 14.8086C9.83685 14.8086 10.4059 15.3777 10.4059 16.0797V19.8674ZM15.2078 19.9565C14.9673 19.6366 14.6862 19.3864 14.2597 19.3864C13.2399 19.3864 13.1464 20.8163 12.3832 21.2116V19.008C12.3832 18.228 13.0155 17.5957 13.7955 17.5957C14.5755 17.5957 15.2078 18.228 15.2078 19.008V19.9565ZM19.7272 19.7092C19.5315 19.5166 19.2995 19.3864 18.9918 19.3864C18.0039 19.3864 17.8853 20.7282 17.185 21.1716V16.699C17.185 15.997 17.7541 15.4279 18.4561 15.4279C19.1581 15.4279 19.7272 15.997 19.7272 16.699V19.7092Z" fill="black" fill-opacity="0.298514"/>
<path fill-rule="evenodd" clip-rule="evenodd" d="M22.0836 19.6007C21.7498 20.1053 21.4963 20.727 20.8178 20.727C19.6758 20.727 19.6141 18.9661 18.4715 18.9661C17.329 18.9661 17.3907 20.727 16.2488 20.727C15.1069 20.727 15.0451 18.9661 13.9026 18.9661C12.76 18.9661 12.8218 20.727 11.6798 20.727C10.5379 20.727 10.4762 18.9661 9.33362 18.9661C8.19108 18.9661 8.25282 20.727 7.11089 20.727C6.752 20.727 6.4998 20.5531 6.28722 20.3145C5.4701 18.8925 5 17.2261 5 15.4445C5 10.2284 9.02936 6 13.9998 6C18.9703 6 22.9996 10.2284 22.9996 15.4445C22.9996 16.9359 22.6702 18.3466 22.0836 19.6007Z" fill="#FB70A9"/>
<path fill-rule="evenodd" clip-rule="evenodd" d="M20.1367 20.5388C22.4952 17.0303 22.5561 13.1385 20.3195 8.86353C21.9774 10.5619 23.0003 12.8926 23.0003 15.4643C23.0003 16.9501 22.6589 18.3555 22.0508 19.6049C21.7049 20.1076 21.4421 20.7269 20.7388 20.7269C20.4981 20.7269 20.3037 20.6544 20.1367 20.5388Z" fill="#E24CA6"/>
<path fill-rule="evenodd" clip-rule="evenodd" d="M13.5173 17.8003C16.647 17.8003 17.9648 15.9847 17.9648 13.4062C17.9648 10.8278 15.9736 8.45435 13.5173 8.45435C11.061 8.45435 9.06982 10.8278 9.06982 13.4062C9.06982 15.9847 10.3876 17.8003 13.5173 17.8003Z" fill="white"/>
<path d="M12.3216 13.5521C13.2427 13.5521 13.9894 12.7279 13.9894 11.7112C13.9894 10.6945 13.2427 9.87036 12.3216 9.87036C11.4005 9.87036 10.6538 10.6945 10.6538 11.7112C10.6538 12.7279 11.4005 13.5521 12.3216 13.5521Z" fill="#030776"/>
<path d="M12.0429 12.136C12.5034 12.136 12.8768 11.7556 12.8768 11.2864C12.8768 10.8172 12.5034 10.4368 12.0429 10.4368C11.5823 10.4368 11.209 10.8172 11.209 11.2864C11.209 11.7556 11.5823 12.136 12.0429 12.136Z" fill="white"/>
</svg>
