<svg width="28" height="28" viewBox="0 0 28 28" fill="none" xmlns="http://www.w3.org/2000/svg">
<rect width="28" height="28" rx="2" fill="white"/>
<path fill-rule="evenodd" clip-rule="evenodd" d="M22.0836 17.6007C21.7498 18.1053 21.4963 18.727 20.8178 18.727C19.6758 18.727 19.6141 16.9661 18.4715 16.9661C17.329 16.9661 17.3907 18.727 16.2488 18.727C15.1069 18.727 15.0451 16.9661 13.9026 16.9661C12.76 16.9661 12.8218 18.727 11.6798 18.727C10.5379 18.727 10.4762 16.9661 9.33362 16.9661C8.19108 16.9661 8.25282 18.727 7.11089 18.727C6.752 18.727 6.4998 18.5531 6.28722 18.3145C5.4701 16.8925 5 15.2261 5 13.4445C5 8.22844 9.02936 4 13.9998 4C18.9703 4 22.9996 8.22844 22.9996 13.4445C22.9996 14.9359 22.6702 16.3466 22.0836 17.6007Z" fill="#FB70A9"/>
<path d="M10.4059 16.6685V20.5804C10.4059 21.2824 9.83685 21.8515 9.13485 21.8515C8.43285 21.8515 7.86377 21.2824 7.86377 20.5804V15.8579C8.10101 15.4224 8.37202 15.0454 8.86061 15.0454C9.65599 15.0454 9.93389 16.0446 10.4059 16.6685ZM15.2078 16.8723V23.0584C15.2078 23.8384 14.5755 24.4707 13.7955 24.4707C13.0155 24.4707 12.3832 23.8384 12.3832 23.0584V16.057C12.6491 15.5442 12.9232 15.0454 13.4852 15.0454C14.3749 15.0454 14.6171 16.2955 15.2078 16.8723ZM19.7272 16.7588V21.2497C19.7272 21.9517 19.1581 22.5208 18.4561 22.5208C17.7541 22.5208 17.185 21.9517 17.185 21.2497V15.7299C17.4063 15.3511 17.6699 15.0454 18.1098 15.0454C18.9448 15.0454 19.2095 16.1466 19.7272 16.7588Z" fill="#4E56A6"/>
<path d="M10.4059 17.8674C10.1805 17.5913 9.91356 17.3864 9.52754 17.3864C8.61094 17.3864 8.44269 18.5416 7.86377 19.0624L7.86377 14.0797C7.86377 13.3777 8.43285 12.8086 9.13485 12.8086C9.83685 12.8086 10.4059 13.3777 10.4059 14.0797V17.8674ZM15.2078 17.9565C14.9673 17.6366 14.6862 17.3864 14.2597 17.3864C13.2399 17.3864 13.1464 18.8163 12.3832 19.2116V17.008C12.3832 16.228 13.0155 15.5957 13.7955 15.5957C14.5755 15.5957 15.2078 16.228 15.2078 17.008V17.9565ZM19.7272 17.7092C19.5315 17.5166 19.2995 17.3864 18.9918 17.3864C18.0039 17.3864 17.8853 18.7282 17.185 19.1716V14.699C17.185 13.997 17.7541 13.4279 18.4561 13.4279C19.1581 13.4279 19.7272 13.997 19.7272 14.699V17.7092Z" fill="black" fill-opacity="0.298514"/>
<path fill-rule="evenodd" clip-rule="evenodd" d="M22.0836 17.6007C21.7498 18.1053 21.4963 18.727 20.8178 18.727C19.6758 18.727 19.6141 16.9661 18.4715 16.9661C17.329 16.9661 17.3907 18.727 16.2488 18.727C15.1069 18.727 15.0451 16.9661 13.9026 16.9661C12.76 16.9661 12.8218 18.727 11.6798 18.727C10.5379 18.727 10.4762 16.9661 9.33362 16.9661C8.19108 16.9661 8.25282 18.727 7.11089 18.727C6.752 18.727 6.4998 18.5531 6.28722 18.3145C5.4701 16.8925 5 15.2261 5 13.4445C5 8.22844 9.02936 4 13.9998 4C18.9703 4 22.9996 8.22844 22.9996 13.4445C22.9996 14.9359 22.6702 16.3466 22.0836 17.6007Z" fill="#FB70A9"/>
<path fill-rule="evenodd" clip-rule="evenodd" d="M20.1367 18.5388C22.4952 15.0303 22.5561 11.1385 20.3195 6.86353C21.9774 8.56191 23.0003 10.8926 23.0003 13.4643C23.0003 14.9501 22.6589 16.3555 22.0508 17.6049C21.7049 18.1076 21.4421 18.7269 20.7388 18.7269C20.4981 18.7269 20.3037 18.6544 20.1367 18.5388Z" fill="#E24CA6"/>
<path fill-rule="evenodd" clip-rule="evenodd" d="M13.5173 15.8003C16.647 15.8003 17.9648 13.9847 17.9648 11.4062C17.9648 8.8278 15.9736 6.45435 13.5173 6.45435C11.061 6.45435 9.06982 8.8278 9.06982 11.4062C9.06982 13.9847 10.3876 15.8003 13.5173 15.8003Z" fill="white"/>
<path d="M12.3216 11.5521C13.2427 11.5521 13.9894 10.7279 13.9894 9.71123C13.9894 8.69455 13.2427 7.87036 12.3216 7.87036C11.4005 7.87036 10.6538 8.69455 10.6538 9.71123C10.6538 10.7279 11.4005 11.5521 12.3216 11.5521Z" fill="#030776"/>
<path d="M12.0429 10.136C12.5034 10.136 12.8768 9.75564 12.8768 9.2864C12.8768 8.81716 12.5034 8.43677 12.0429 8.43677C11.5823 8.43677 11.209 8.81716 11.209 9.2864C11.209 9.75564 11.5823 10.136 12.0429 10.136Z" fill="white"/>
</svg>
