<svg width="28" height="28" viewBox="0 0 28 28" fill="none" xmlns="http://www.w3.org/2000/svg">
<rect width="28" height="28" rx="2" fill="#00758F"/>
<rect width="28" height="28" rx="2" fill="#00758F"/>
<path fill-rule="evenodd" clip-rule="evenodd" d="M8.55152 7.43161C8.32402 7.42732 8.16304 7.45676 7.99299 7.49479V7.52628H8.02409C8.13278 7.75354 8.32444 7.89989 8.45854 8.09567C8.56164 8.31712 8.66506 8.53826 8.76848 8.7594C8.77902 8.74887 8.78946 8.73844 8.79958 8.72791C8.99197 8.59005 9.07969 8.36935 9.07884 8.03238C9.00167 7.94964 8.99018 7.84627 8.92355 7.74774C8.83521 7.61632 8.66337 7.54207 8.55152 7.43161ZM23.5655 23.652C23.7119 23.7615 23.81 23.9313 23.9999 24.0001V23.9684C23.9 23.8392 23.8746 23.661 23.7828 23.5256C23.6488 23.3889 23.5136 23.2517 23.3795 23.1144C22.985 22.5809 22.4848 22.1127 21.9526 21.7235C21.5287 21.4128 20.5786 20.9938 20.4015 20.4906C20.3914 20.4798 20.3809 20.4692 20.3703 20.4584C20.6711 20.4241 21.0235 20.3132 21.3011 20.2372C21.7675 20.1098 22.1844 20.1429 22.6658 20.016C22.8833 19.9525 23.1002 19.8891 23.3173 19.8264V19.6995C23.0739 19.4449 22.9004 19.1079 22.6351 18.8774C21.9402 18.2748 21.1823 17.6722 20.4014 17.1702C19.9688 16.8915 19.4333 16.7106 18.9744 16.4745C18.8201 16.3952 18.5491 16.3538 18.447 16.2215C18.2063 15.9082 18.0749 15.5111 17.8889 15.1463C17.4997 14.382 17.1169 13.5474 16.7718 12.7432C16.5368 12.195 16.383 11.6543 16.0896 11.1622C14.6811 8.80184 13.1646 7.37703 10.8161 5.97661C10.316 5.67886 9.71443 5.5613 9.07884 5.40765C8.7378 5.38669 8.39613 5.36531 8.05508 5.34436C7.84688 5.25571 7.63034 4.99611 7.43478 4.87006C6.65655 4.36912 4.66059 3.27924 4.08456 4.71211C3.72064 5.61632 4.62812 6.49871 4.95292 6.9571C5.18095 7.27849 5.47245 7.639 5.63564 8.00036C5.74264 8.23793 5.76088 8.47637 5.85313 8.7277C6.07852 9.34705 6.27439 10.0208 6.56599 10.5933C6.71369 10.8828 6.87636 11.188 7.06274 11.4469C7.17713 11.6058 7.37258 11.6758 7.40326 11.9212C7.21213 12.1944 7.20116 12.6184 7.09374 12.9645C6.60879 14.5228 6.7917 16.4593 7.49708 17.6127C7.7132 17.9665 8.22302 18.7261 8.92355 18.4346C9.53638 18.1801 9.39975 17.3914 9.57507 16.6957C9.61449 16.5376 9.59046 16.4217 9.66805 16.3163V16.3478C9.85443 16.7272 10.0406 17.1066 10.2266 17.4859C10.64 18.1642 11.3735 18.8736 11.995 19.3517C12.3169 19.5997 12.5706 20.0286 12.9876 20.1738V20.1417H12.9565C12.8753 20.0139 12.749 19.9603 12.6465 19.8575C12.4037 19.6147 12.1337 19.3132 11.9327 19.0352C11.3672 18.2531 10.8679 17.3969 10.4129 16.5059C10.1954 16.0803 10.0065 15.6109 9.82312 15.1779C9.7526 15.0108 9.75344 14.7584 9.60606 14.6719C9.40534 14.9891 9.10984 15.246 8.95455 15.6205C8.70639 16.2195 8.67444 16.9498 8.58241 17.7072C8.52801 17.7272 8.55215 17.7136 8.5201 17.7387C8.08787 17.6328 7.93617 17.1793 7.77572 16.7904C7.36973 15.807 7.29436 14.2232 7.65163 13.091C7.74409 12.7982 8.1624 11.8755 7.99267 11.6049C7.91192 11.3348 7.64583 11.1789 7.49687 10.9725C7.31175 10.7174 7.12768 10.3818 6.9997 10.0871C6.66783 9.3203 6.51265 8.4595 6.16275 7.68423C5.99534 7.31385 5.71249 6.93862 5.48014 6.60907C5.22291 6.24416 4.93479 5.97553 4.73565 5.5339C4.6647 5.37713 4.56824 5.12623 4.67345 4.96494C4.70666 4.8561 4.7541 4.81075 4.85984 4.77518C5.04 4.63378 5.54065 4.82225 5.7282 4.90166C6.22537 5.11215 6.64095 5.31277 7.06232 5.59719C7.26442 5.73387 7.46904 5.99842 7.71331 6.07159H7.99257C8.42965 6.17378 8.91892 6.10351 9.32658 6.22976C10.0478 6.45315 10.694 6.80065 11.2809 7.17846C13.0688 8.32894 14.5308 9.96716 15.5308 11.9212C15.6917 12.2358 15.7615 12.536 15.9029 12.8699C16.1887 13.5428 16.5492 14.2352 16.8336 14.8934C17.1173 15.5497 17.3939 16.2124 17.7951 16.7589C18.0059 17.046 18.8208 17.2001 19.1914 17.3597C19.4509 17.4714 19.8761 17.5881 20.1216 17.7387C20.5916 18.0277 21.0463 18.3713 21.4867 18.6876C21.7069 18.8459 22.3838 19.1926 22.4171 19.4777C21.3263 19.4483 20.4929 19.5516 19.7805 19.8576C19.578 19.9443 19.2553 19.9469 19.222 20.2051C19.3333 20.3239 19.3509 20.5019 19.4394 20.6479C19.6091 20.9286 19.8962 21.3043 20.1527 21.5018C20.4328 21.7172 20.7214 21.9477 21.0212 22.1342C21.5552 22.4662 22.1514 22.6556 22.6653 22.988C22.9693 23.1842 23.2701 23.4308 23.5655 23.652Z" fill="black" stroke="black" stroke-width="0.5"/>
</svg>
