<svg width="26" height="26" viewBox="0 0 26 26" fill="none" xmlns="http://www.w3.org/2000/svg">
<path d="M20.0588 14.3333L24.9493 11.6667V6.33333L20.0588 3.66667L15.1683 6.33333V11.6667M20.0588 14.3333L15.1683 11.6667ZM20.0588 14.3333V19.6667L10.1765 25M20.0588 14.3333V9ZM20.0588 14.3333L10.1765 19.6667ZM15.1683 11.6667L10.8824 13.9797ZM10.1765 25L5.28596 22.1576ZM10.1765 25V19.6667ZM5.28596 22.3333V22.1576ZM5.28596 22.1576V17L10.8824 13.9797M5.28596 22.1576L1 19.6667V3.66667M1 3.66667L5.94118 1L10.8824 3.66667M1 3.66667L5.23528 6.33333ZM10.8824 3.66667V13.9797ZM10.8824 3.66667L5.23528 6.33333ZM20.0588 9L25 6.33333ZM20.0588 9L15.1176 6.33333ZM10.1765 19.6667L5.23528 17ZM5.23528 17.6667V6.33333Z" fill="#011627"/>
<path d="M20.0588 14.3333L24.9493 11.6667V6.33333L20.0588 3.66667L15.1683 6.33333V11.6667M20.0588 14.3333L15.1683 11.6667M20.0588 14.3333V19.6667L10.1765 25M20.0588 14.3333V9M20.0588 14.3333L10.1765 19.6667M15.1683 11.6667L10.8824 13.9797M10.1765 25L5.28596 22.1576M10.1765 25V19.6667M20.0588 9L25 6.33333M20.0588 9L15.1176 6.33333M10.1765 19.6667L5.23528 17M10.8824 13.9797L5.28596 17V22.1576M10.8824 13.9797V3.66667M5.28596 22.1576V22.3333M5.28596 22.1576L1 19.6667V3.66667M1 3.66667L5.94118 1L10.8824 3.66667M1 3.66667L5.23528 6.33333M10.8824 3.66667L5.23528 6.33333M5.23528 6.33333V17.6667" stroke="#607B96" stroke-linejoin="round"/>
</svg>
