<svg width="26" height="26" viewBox="0 0 44 51" fill="none" xmlns="http://www.w3.org/2000/svg">
<path fill-rule="evenodd" clip-rule="evenodd" d="M41.7607 33.2469C40.9449 34.4803 40.325 36 38.6664 36C35.875 36 35.724 31.6957 32.9311 31.6957C30.1381 31.6957 30.2891 36 27.4976 36C24.7062 36 24.5552 31.6957 21.7623 31.6957C18.9694 31.6957 19.1203 36 16.3288 36C13.5374 36 13.3865 31.6957 10.5935 31.6957C7.80056 31.6957 7.95149 36 5.16004 36C4.28275 36 3.66626 35.5749 3.1466 34.9918C1.14914 31.5156 0 27.4421 0 23.087C0 10.3364 9.84974 0 22 0C34.1503 0 44 10.3364 44 23.087C44 26.7327 43.1947 30.1811 41.7607 33.2469Z" fill="#607B96"/>
<path d="M13.2143 30.9676V40.5303C13.2143 42.2463 11.8232 43.6374 10.1071 43.6374C8.39112 43.6374 7 42.2463 7 40.5303L7 28.9862C7.57992 27.9217 8.24241 27 9.43677 27C11.3811 27 12.0604 29.4424 13.2143 30.9676ZM24.9524 31.4658V46.5876C24.9524 48.4943 23.4067 50.04 21.5 50.04C19.5933 50.04 18.0476 48.4943 18.0476 46.5876V29.4727C18.6977 28.2192 19.3679 27 20.7415 27C22.9164 27 23.5085 30.0559 24.9524 31.4658ZM36 31.1883V42.1664C36 43.8824 34.6089 45.2735 32.8929 45.2735C31.1768 45.2735 29.7857 43.8824 29.7857 42.1664V28.6732C30.3267 27.7472 30.9709 27 32.0463 27C34.0875 27 34.7345 29.6918 36 31.1883Z" fill="#607B96"/>
<path d="M13.2143 33.8984C12.6631 33.2235 12.0107 32.7227 11.0671 32.7227C8.82646 32.7227 8.41517 35.5465 7 36.8196L7 24.6393C7 22.9233 8.39112 21.5322 10.1071 21.5322C11.8232 21.5322 13.2143 22.9233 13.2143 24.6393V33.8984ZM24.9524 34.1163C24.3645 33.3342 23.6774 32.7227 22.6348 32.7227C20.1419 32.7227 19.9134 36.218 18.0476 37.1843V31.7976C18.0476 29.8909 19.5933 28.3452 21.5 28.3452C23.4067 28.3452 24.9524 29.8909 24.9524 31.7976V34.1163ZM36 33.5118C35.5217 33.0409 34.9546 32.7227 34.2024 32.7227C31.7876 32.7227 31.4976 36.0027 29.7857 37.0864V26.1533C29.7857 24.4373 31.1768 23.0462 32.8929 23.0462C34.6089 23.0462 36 24.4373 36 26.1533V33.5118Z" fill="black" fill-opacity="0.298514"/>
<path fill-rule="evenodd" clip-rule="evenodd" d="M41.7607 33.2469C40.9449 34.4803 40.325 36 38.6664 36C35.875 36 35.724 31.6957 32.9311 31.6957C30.1381 31.6957 30.2891 36 27.4976 36C24.7062 36 24.5552 31.6957 21.7623 31.6957C18.9694 31.6957 19.1203 36 16.3288 36C13.5374 36 13.3865 31.6957 10.5935 31.6957C7.80056 31.6957 7.95149 36 5.16004 36C4.28275 36 3.66626 35.5749 3.1466 34.9918C1.14914 31.5156 0 27.4421 0 23.087C0 10.3364 9.84974 0 22 0C34.1503 0 44 10.3364 44 23.087C44 26.7327 43.1947 30.1811 41.7607 33.2469Z" fill="#607B96"/>
<path fill-rule="evenodd" clip-rule="evenodd" d="M37 35.5401C42.7652 26.9635 42.9142 17.4502 37.4469 7C41.4995 11.1517 44 16.8491 44 23.1356C44 26.7676 43.1653 30.203 41.6789 33.2573C40.8333 34.486 40.1909 36 38.4717 36C37.8833 36 37.4081 35.8227 37 35.5401Z" fill="#607B96"/>
<path fill-rule="evenodd" clip-rule="evenodd" d="M20.82 28.8462C28.4706 28.8462 31.6918 24.4079 31.6918 18.1049C31.6918 11.8019 26.8244 6 20.82 6C14.8157 6 9.94824 11.8019 9.94824 18.1049C9.94824 24.4079 13.1695 28.8462 20.82 28.8462Z" fill="white"/>
<path d="M17.8972 18.4615C20.1489 18.4615 21.9742 16.4468 21.9742 13.9615C21.9742 11.4763 20.1489 9.46155 17.8972 9.46155C15.6456 9.46155 13.8203 11.4763 13.8203 13.9615C13.8203 16.4468 15.6456 18.4615 17.8972 18.4615Z" fill="#607B96"/>
<path d="M17.2181 15C18.344 15 19.2566 14.0702 19.2566 12.9231C19.2566 11.7761 18.344 10.8462 17.2181 10.8462C16.0923 10.8462 15.1797 11.7761 15.1797 12.9231C15.1797 14.0702 16.0923 15 17.2181 15Z" fill="white"/>
</svg>
