<svg width="25" height="25" viewBox="0 0 25 25" fill="none" xmlns="http://www.w3.org/2000/svg">
<path fill-rule="evenodd" clip-rule="evenodd" d="M6.13663 4.70021C5.86363 4.69505 5.67045 4.73038 5.46639 4.77603V4.81381H5.50371C5.63414 5.08652 5.86413 5.26214 6.02505 5.49707C6.14877 5.76282 6.27288 6.02819 6.39698 6.29355C6.40963 6.28092 6.42215 6.26841 6.4343 6.25577C6.66517 6.09034 6.77043 5.82549 6.76942 5.42113C6.67681 5.32184 6.66302 5.1978 6.58307 5.07956C6.47706 4.92186 6.27085 4.83276 6.13663 4.70021ZM24.1534 24.1647C24.3291 24.2961 24.4469 24.4998 24.6747 24.5824V24.5443C24.5548 24.3893 24.5243 24.1754 24.4142 24.0129C24.2533 23.8489 24.0911 23.6843 23.9302 23.5196C23.4568 22.8794 22.8565 22.3175 22.2179 21.8505C21.7093 21.4777 20.5692 20.9748 20.3566 20.371C20.3445 20.3581 20.3318 20.3453 20.3192 20.3324C20.6801 20.2912 21.103 20.1581 21.4361 20.0669C21.9958 19.914 22.4961 19.9537 23.0738 19.8014C23.3347 19.7252 23.5951 19.6492 23.8556 19.574V19.4217C23.5635 19.1161 23.3552 18.7117 23.0369 18.4352C22.203 17.712 21.2935 16.9889 20.3565 16.3865C19.8373 16.052 19.1948 15.835 18.6441 15.5516C18.4589 15.4565 18.1338 15.4068 18.0112 15.2481C17.7224 14.8721 17.5646 14.3956 17.3415 13.9579C16.8744 13.0407 16.4151 12.0391 16.001 11.0741C15.719 10.4162 15.5344 9.76739 15.1824 9.17696C13.4921 6.34449 11.6723 4.63471 8.85412 2.9542C8.25397 2.5969 7.53213 2.45584 6.76942 2.27145C6.36017 2.24631 5.95016 2.22065 5.54091 2.1955C5.29106 2.08913 5.03121 1.7776 4.79654 1.62635C3.86267 1.02522 1.46751 -0.282639 0.776276 1.43681C0.339574 2.52186 1.42855 3.58073 1.81831 4.1308C2.09195 4.51647 2.44174 4.94907 2.63757 5.3827C2.76598 5.66779 2.78786 5.95392 2.89856 6.25551C3.16903 6.99874 3.40408 7.80721 3.754 8.49421C3.93123 8.84158 4.12643 9.20791 4.3501 9.51853C4.48736 9.70924 4.7219 9.79318 4.75871 10.0877C4.52936 10.4156 4.5162 10.9244 4.38729 11.3397C3.80536 13.2096 4.02485 15.5334 4.87131 16.9175C5.13064 17.3421 5.74243 18.2536 6.58307 17.9038C7.31846 17.5984 7.1545 16.652 7.36488 15.8171C7.4122 15.6274 7.38335 15.4883 7.47646 15.3618V15.3996C7.70013 15.8549 7.92354 16.3102 8.1467 16.7654C8.64286 17.5794 9.52297 18.4306 10.2688 19.0043C10.6551 19.3019 10.9596 19.8166 11.4599 19.9908V19.9523H11.4226C11.3252 19.799 11.1736 19.7346 11.0507 19.6112C10.7592 19.32 10.4352 18.9581 10.1941 18.6246C9.5155 17.686 8.91624 16.6586 8.37023 15.5894C8.10925 15.0787 7.88255 14.5153 7.66255 13.9958C7.57792 13.7953 7.57893 13.4924 7.40208 13.3886C7.16121 13.7692 6.80661 14.0774 6.62026 14.5269C6.32247 15.2456 6.28414 16.1221 6.17369 17.031C6.10842 17.055 6.13739 17.0386 6.09893 17.0688C5.58025 16.9416 5.39821 16.3975 5.20566 15.9307C4.71849 14.7506 4.62803 12.8501 5.05676 11.4915C5.16771 11.1401 5.66969 10.0329 5.46601 9.70821C5.36911 9.38404 5.04981 9.19695 4.87105 8.94925C4.64891 8.64314 4.42803 8.24045 4.27445 7.88677C3.8762 6.96663 3.68998 5.93367 3.27011 5.00335C3.06921 4.55889 2.7298 4.10862 2.45098 3.71316C2.1423 3.27527 1.79655 2.95291 1.55758 2.42296C1.47244 2.23483 1.35669 1.93375 1.48294 1.74021C1.52279 1.60959 1.57972 1.55518 1.70661 1.5125C1.92281 1.34281 2.52359 1.56897 2.74865 1.66426C3.34525 1.91686 3.84394 2.1576 4.34959 2.49891C4.5921 2.66292 4.83765 2.98038 5.13077 3.06819H5.46589C5.99039 3.19081 6.5775 3.10648 7.06671 3.25799C7.93214 3.52606 8.70763 3.94306 9.41189 4.39642C11.5573 5.77701 13.3117 7.74287 14.5118 10.0877C14.7048 10.4652 14.7886 10.8255 14.9583 11.2261C15.3013 12.0337 15.7338 12.8645 16.0751 13.6544C16.4156 14.4419 16.7475 15.2371 17.2289 15.8929C17.4819 16.2375 18.4598 16.4224 18.9045 16.614C19.2159 16.7479 19.7261 16.888 20.0208 17.0688C20.5847 17.4155 21.1304 17.8278 21.6589 18.2074C21.923 18.3974 22.7354 18.8133 22.7753 19.1556C21.4664 19.1202 20.4663 19.2441 19.6114 19.6114C19.3684 19.7154 18.9811 19.7185 18.9412 20.0284C19.0747 20.171 19.0959 20.3845 19.2021 20.5597C19.4057 20.8965 19.7503 21.3475 20.0581 21.5844C20.3942 21.843 20.7405 22.1196 21.1002 22.3433C21.741 22.7417 22.4565 22.969 23.0731 23.3678C23.438 23.6033 23.7989 23.8992 24.1534 24.1647Z" fill="#607B96" stroke="#607B96" stroke-width="0.5"/>
</svg>
